<?xml version="1.0" standalone="no"?>
<!DOCTYPE svg PUBLIC "-//W3C//DTD SVG 1.1//EN" "http://www.w3.org/Graphics/SVG/1.1/DTD/svg11.dtd" >
<svg xmlns="http://www.w3.org/2000/svg">
<metadata>
This is a custom SVG webfont generated by Font Squirrel.
Copyright   : Freeware by Ray Larabie 1997
</metadata>
<defs>
<font id="NasaMedium" horiz-adv-x="1141" >
<font-face units-per-em="2048" ascent="1638" descent="-410" />
<missing-glyph horiz-adv-x="602" />
<glyph unicode=" "  horiz-adv-x="602" />
<glyph unicode="&#x09;" horiz-adv-x="602" />
<glyph unicode="&#xa0;" horiz-adv-x="602" />
<glyph unicode="!" horiz-adv-x="382" d="M58 4v261h270v-261h-270zM58 4zM58 409v817h270v-817h-270z" />
<glyph unicode="&#x22;" horiz-adv-x="882" d="M58 660v291q46 0 68.5 24.5t22.5 66.5v169h272v-260q0 -123 -78 -207t-194 -84h-91zM466 660v291q46 0 68.5 24.5t22.5 66.5v169h271v-260q0 -124 -77.5 -207.5t-193.5 -83.5h-91z" />
<glyph unicode="#" horiz-adv-x="1444" d="M134 354q0 17 9 38l10 23q7 19 24 30t37 11h216l42 115h-166q-69 0 -69 54q0 15 6 33l7 21q16 46 63 46h218l86 236q8 21 24.5 32.5t38.5 11.5h54q70 0 70 -53q0 -15 -8 -37l-68 -190h148l86 236q8 21 24.5 32.5t38.5 11.5h54q70 0 70 -54q0 -18 -7 -36l-70 -190h167 q69 0 69 -55q0 -15 -6 -33l-7 -21q-16 -45 -63 -45h-219l-41 -115h166q69 0 69 -54q0 -14 -6 -34l-7 -22q-16 -45 -63 -45h-218l-86 -236q-17 -44 -63 -44h-54q-70 0 -70 54q0 15 8 36l69 190h-149l-87 -236q-16 -44 -62 -44h-54q-70 0 -70 55q0 17 7 35l71 190h-168 q-71 0 -71 53zM626 456h151l42 115h-151z" />
<glyph unicode="$" d="M63 856q0 150 82 254q92 116 247 116h695v-258h-379v-218h112q155 0 245 -116q81 -104 81 -257q0 -152 -81 -257q-90 -116 -245 -116h-697v260h397v222h-128q-156 0 -247 115q-82 103 -82 255zM342 856q0 -44 24.5 -75t70.5 -31h83v218h-83q-44 0 -69.5 -33.5 t-25.5 -78.5zM708 264h68q42 0 66 34.5t24 79.5t-23 76.5t-67 31.5h-68v-222z" />
<glyph unicode="%" horiz-adv-x="1831" d="M122 707v134q0 74 54 117q59 47 185 59q8 1 45 1h56h107q44 0 83 -1q124 -11 189 -60q60 -45 60 -116v-129q0 -69 -60 -115q-66 -50 -190 -62h-288q-225 24 -241 172zM326 760q7 -64 107 -77l129 1q57 5 85.5 26.5t28.5 52.5v19q0 33 -27 55q-31 25 -86 25h-130 q-57 -6 -82 -26t-25 -54v-22zM333 51q0 28 30 58l947 905q6 6 21 12t23 6l90 2q36 0 57.5 -16t21.5 -40q0 -29 -31 -59l-942 -901q-5 -4 -21 -11t-22 -8l-94 -5q-37 0 -58.5 15.5t-21.5 41.5zM940 145v134q0 75 53 117q58 46 185 60h290q125 -12 190 -61q60 -46 60 -116 v-130q0 -69 -62.5 -116.5t-187.5 -59.5l-289 -1q-224 24 -239 173zM1143 198q3 -34 29 -52t78 -25l130 1q56 5 84 26.5t28 52.5v19q0 34 -27 55t-84 26h-132q-56 -6 -81 -26t-25 -55v-22z" />
<glyph unicode="&#x26;" horiz-adv-x="1629" d="M130 243v70q0 64 29 106q34 49 117 86q23 9 52.5 19t64.5 20l-68 62q-71 70 -81 103q-2 7 -2.5 19t-1.5 18l8 106q23 79 115 128q98 52 245 52h202q162 0 259.5 -66t97.5 -170l-3 -86q-16 -53 -107 -109q-66 -41 -159 -77q-74 -29 -83 -29l407 -231l1 216q0 66 67 66h55 q66 0 66 -66v-206q0 -29 -5.5 -54.5t-18.5 -50.5l85 -50q43 -27 43 -64q0 -25 -21 -42.5t-57 -17.5l-65 1l-34 8l-82 50q-64 -34 -135.5 -47t-187.5 -13h-362q-195 0 -318 73t-123 176zM320 247q0 -32 61 -61q77 -37 202 -37h352h25h20q65 0 97 8l-490 279q-89 -28 -133 -44 q-134 -50 -134 -76v-69zM430 745q0 -22 33 -51l152 -90l233 66q69 21 91 32q38 19 38 45v50q0 38 -31.5 55t-98.5 23l-42 2h-201q-75 0 -124.5 -20t-49.5 -57v-55z" />
<glyph unicode="'" horiz-adv-x="499" d="M58 660v291q46 0 68.5 24.5t22.5 66.5v169h272v-260q0 -123 -78 -207t-194 -84h-91z" />
<glyph unicode="(" horiz-adv-x="649" d="M165 293v440q0 64 32 126q28 54 77 99q43 38 108 68q1 1 26 2t51 4q36 0 57 -17.5t21 -43.5q0 -17 -10.5 -33.5t-32.5 -29.5q-78 -45 -112 -95q-27 -39 -27 -80v-440q0 -42 40.5 -94t93.5 -78q23 -12 34.5 -28.5t11.5 -36.5q0 -26 -20 -44t-56 -18h-50q-5 0 -16.5 2.5 t-13.5 4.5q-92 46 -157 144q-57 86 -57 148z" />
<glyph unicode=")" horiz-adv-x="649" d="M114 971q0 25 21 43t57 18q26 -2 50.5 -3t27.5 -3q63 -29 106 -68q49 -44 78 -99q33 -62 33 -126v-440q0 -61 -57 -147q-65 -99 -157 -145q-2 -1 -14.5 -4t-15.5 -3h-51q-35 0 -55.5 17.5t-20.5 44.5q0 18 11.5 35.5t35.5 29.5q52 26 93 78t41 94v440q0 43 -26 80 q-34 49 -114 95q-21 12 -32 29t-11 34z" />
<glyph unicode="*" horiz-adv-x="1107" d="M159 727q0 43 61 57l91 22l-91 22q-61 13 -61 57q0 27 28 55l36 36q22 20 48 20q13 0 27 -6l181 -83l-22 91q-3 14 -3 26q0 56 68 56h78q69 0 69 -56q0 -5 -0.5 -11t-3.5 -18l-22 -84l185 82q15 6 30 6q26 0 46 -21l36 -38q14 -14 20 -27.5t6 -27.5q0 -41 -61 -55 l-100 -23l96 -23q61 -14 61 -57q0 -29 -31 -57l-34 -32q-20 -18 -46 -18q-14 0 -28 6l-181 82l22 -90q3 -15 3 -26q0 -57 -69 -57h-75q-68 0 -68 57q0 10 3 24l21 92l-178 -83q-15 -6 -30 -6q-25 0 -44 16l-37 35q-31 28 -31 57z" />
<glyph unicode="+" horiz-adv-x="1629" d="M167 502v19q0 66 68 66h485v263q0 66 67 66h48q68 0 68 -66v-263h491q67 0 67 -66v-19q0 -66 -67 -66h-491v-270q0 -66 -68 -66h-46q-67 0 -67 66v270h-487q-68 0 -68 66z" />
<glyph unicode="," horiz-adv-x="382" d="M-33 4q46 0 68.5 24.5t22.5 67.5v169h270v-261q0 -123 -77 -207t-193 -84h-91v291z" />
<glyph unicode="-" d="M58 4zM58 486v264h1029v-264h-1029z" />
<glyph unicode="." horiz-adv-x="382" d="M58 4v261h270v-261h-270z" />
<glyph unicode="/" horiz-adv-x="1330" d="M91 50q0 29 30 59l936 904q19 19 45 19h61q35 0 55.5 -15.5t20.5 -40.5q0 -28 -30 -58l-935 -905q-7 -7 -22 -13t-24 -6h-61q-35 0 -55.5 15.5t-20.5 40.5z" />
<glyph unicode="0" horiz-adv-x="1327" d="M6 605q0 250 114 426q126 195 337 195h399q211 0 337 -195q114 -176 114 -427q0 -246 -111 -413q-124 -187 -340 -187h-399q-215 0 -339 187q-112 168 -112 414zM295 627q0 -145 52 -246q58 -112 155 -112h309q96 0 154 112q53 102 53 246q0 140 -51 235 q-57 106 -156 106h-309q-99 0 -156 -106q-51 -95 -51 -235z" />
<glyph unicode="1" horiz-adv-x="382" d="M-157 932v280h9q5 0 13 1q84 0 162 -23q128 -38 202 -125q99 -117 99 -314v-747h-270v664q0 161 -80 226q-48 39 -119 39h-9q-4 0 -7 -1zM58 4z" />
<glyph unicode="2" horiz-adv-x="1213" d="M51 311q0 107 55 191q61 94 177 133l549 220q29 0 46.5 19t15.5 36q-7 26 -21 35.5t-41 9.5h-780v271h843q134 0 215 -91q74 -83 74 -204q0 -105 -57 -189q-63 -92 -178 -130l-594 -241q-40 0 -40 -37q0 -23 18 -41t49 -18h753v-271h-821q-118 0 -193 94q-70 88 -70 213z " />
<glyph unicode="3" d="M67 4v256h650q45 0 72 35q24 31 24 77q0 44 -23 73q-26 33 -73 33h-215v272h215q46 0 71 31.5t25 74.5q0 46 -24 77q-27 35 -72 35h-650v258h695q155 0 249 -120q85 -109 85 -260q0 -67 -19.5 -127t-57.5 -105q37 -48 55.5 -108t18.5 -128q0 -150 -83 -256 q-92 -118 -248 -118h-695z" />
<glyph unicode="4" horiz-adv-x="1102" d="M60 492q0 48 14.5 95.5t44.5 92.5l254 383q55 82 143 126q80 40 170 40h129q90 0 161.5 -63.5t71.5 -154.5v-1002h-261v210h-464q-117 0 -190 80t-73 193zM363 549q0 -27 20 -47t55 -20h349v484h-101q-29 0 -57 -19.5t-50 -51.5l-206 -312q-10 -14 -10 -34z" />
<glyph unicode="5" d="M63 856q0 150 82 254q92 116 247 116h695v-258h-650q-44 0 -69.5 -33.5t-25.5 -78.5q0 -44 24.5 -75t70.5 -31h383q155 0 245 -116q81 -104 81 -257q0 -152 -81 -257q-90 -116 -245 -116h-697v260h653q42 0 66 34.5t24 79.5t-23 76.5t-67 31.5h-384q-156 0 -247 115 q-82 103 -82 255z" />
<glyph unicode="6" d="M38 605q0 250 114 426q126 195 338 195h597v-258h-552q-77 0 -129 -63q-47 -56 -67 -155h481q155 0 245 -116q81 -104 81 -257q0 -152 -81 -257q-90 -116 -245 -116h-330q-215 0 -340 187q-112 168 -112 414zM342 486q23 -97 70 -154q52 -63 123 -63h241q42 0 66 33.5 t24 78.5q0 43 -22 72q-25 33 -68 33h-434z" />
<glyph unicode="7" d="M54 952v265h488q231 0 366 -116q106 -91 150 -248q29 -103 29 -224q0 -28 -0.5 -39.5t-2.5 -20.5v-573h-271v573q0 154 -65 261q-74 122 -206 122h-488z" />
<glyph unicode="8" d="M48 847q0 151 85 259q94 120 249 120h380q155 0 249 -120q85 -109 85 -260q0 -67 -19.5 -127t-57.5 -105q37 -48 55.5 -108t18.5 -128q0 -151 -83 -257q-92 -118 -248 -118h-380q-155 0 -247 118q-83 106 -83 257q0 68 18 128t56 108q-38 44 -58 105.5t-20 127.5z M332 371q0 -45 25.5 -78.5t69.5 -33.5h290q45 0 72 35q24 31 24 77q0 45 -23 74q-26 33 -73 33h-290q-45 0 -70 -31.5t-25 -75.5zM332 856q0 -44 24.5 -75t70.5 -31h290q46 0 71 31.5t25 74.5q0 46 -24 77q-27 35 -72 35h-290q-44 0 -69.5 -33.5t-25.5 -78.5z" />
<glyph unicode="9" d="M16 856q0 153 81 257q90 116 245 116h331q215 0 340 -187q112 -168 112 -413q0 -250 -114 -426q-126 -194 -338 -194h-598v256h553q76 0 128 64q47 57 67 155h-481q-153 0 -244 116q-82 105 -82 256zM296 854q0 -43 23.5 -74t67.5 -31h433q-22 96 -69 153q-52 64 -123 64 h-241q-42 0 -66.5 -33t-24.5 -79z" />
<glyph unicode=":" horiz-adv-x="382" d="M58 4v261h270v-261h-270zM58 452v261h270v-261h-270z" />
<glyph unicode=";" horiz-adv-x="491" d="M-33 4q46 0 68.5 24.5t22.5 67.5v169h270v-261q0 -123 -77 -207t-193 -84h-91v291zM58 452v261h270v-261h-270z" />
<glyph unicode="&#x3c;" horiz-adv-x="1117" d="M131 509q0 23 23 35l690 287q28 11 55 11q25 0 40 -9.5t15 -27.5v-26q0 -14 -24 -26l-596 -243l596 -244q9 -3 16.5 -11.5t7.5 -14.5v-25q0 -17 -15 -27t-40 -10q-15 0 -27 2t-28 9l-693 288q-20 13 -20 32z" />
<glyph unicode="=" d="M58 243v264h1029v-264h-1029zM58 599v264h1029v-264h-1029z" />
<glyph unicode="&#x3e;" horiz-adv-x="1108" d="M140 215v25q0 6 7.5 14.5t17.5 11.5l595 244l-595 243q-9 4 -17 12t-8 14v26q0 17 15 27t40 10q15 0 27 -2t28 -9l691 -287q23 -13 23 -35q0 -19 -21 -32l-693 -288q-28 -11 -55 -11q-25 0 -40 9.5t-15 27.5z" />
<glyph unicode="?" d="M58 4v261h270v-261h-270zM67 348q0 172 72 278q84 124 247 124h331q46 0 71 31.5t25 74.5q0 46 -24 77q-27 35 -72 35h-650v258h695q156 0 247 -115q82 -104 82 -255q0 -150 -82 -254q-91 -116 -247 -116h-299q-44 -6 -65 -17q-65 -34 -65 -121h-266z" />
<glyph unicode="@" horiz-adv-x="1770" d="M311 562q0 81 45.5 157t134.5 135t202 89.5t232 30.5q123 0 233.5 -30.5t201.5 -91.5q85 -56 125 -139q35 -72 35 -157q0 -50 -13.5 -98t-35.5 -82h-558h-12q-34 0 -47.5 1.5t-28.5 6.5q-77 21 -111 72q-17 28 -17 52q0 53 62 79h-53q-46 11 -68 19q-68 24 -68 50 q0 31 68 54q22 7 68 17h226q205 0 205 -135q-2 -18 -4 -39.5t-2 -42.5q0 -29 6 -29q27 -3 86 -3q54 0 82 0.5t55 2.5q14 21 21 45t7 47q0 60 -39 120q-34 52 -89 93q-71 50 -164 76.5t-193 26.5q-91 0 -176.5 -22t-156.5 -66q-76 -48 -115.5 -110t-39.5 -130 q0 -129 133 -225q72 -50 163.5 -76.5t194.5 -26.5q77 0 148 15t137 48q8 2 18 3t23 1q5 0 12.5 -0.5t18.5 -4.5t16.5 -16t5.5 -27q0 -10 -0.5 -14t-2.5 -9q-71 -39 -163.5 -60.5t-187.5 -21.5q-123 0 -237 31.5t-203 91.5t-134.5 136t-45.5 156zM895 529q0 -9 9 -13 q3 -1 9 -2h10v28h-5q-8 0 -15.5 -2t-7.5 -11z" />
<glyph unicode="A" horiz-adv-x="1264" d="M5 4q25 87 107 346l161 490q87 257 106 286q36 51 105 78t150 27t149.5 -27t104.5 -78q22 -30 108 -284q53 -156 158 -490l110 -348h-289l-319 940q-3 15 -21 15q-17 0 -25 -15l-312 -940h-293z" />
<glyph unicode="B" d="M67 4v255h650q45 0 72 35q24 31 24 77q0 45 -23 74q-26 33 -73 33h-650v272h650q46 0 71 31.5t25 74.5q0 46 -24 77q-27 35 -72 35h-650v258h695q155 0 249 -120q85 -109 85 -260q0 -67 -19.5 -127t-57.5 -105q37 -48 55.5 -108t18.5 -128q0 -150 -83 -256 q-92 -118 -248 -118h-695z" />
<glyph unicode="C" d="M38 605q0 250 114 426q126 195 338 195h597v-258h-552q-100 0 -157 -106q-51 -95 -51 -235q0 -144 53 -246q58 -112 155 -112h552v-265h-597q-215 0 -340 187q-112 168 -112 414z" />
<glyph unicode="D" d="M58 4v1222h597q212 0 338 -194q114 -175 114 -427q0 -246 -112 -414q-125 -187 -340 -187h-597zM328 269h282q96 0 154 112q53 102 53 246q0 140 -51 235q-57 106 -156 106h-282v-699z" />
<glyph unicode="E" d="M63 379q0 138 69 239q-69 101 -69 237q0 150 82 255q91 116 247 116h695v-258h-650q-44 0 -69.5 -33.5t-25.5 -78.5q0 -44 24.5 -75t70.5 -31h650v-257v-7h-687q-27 -12 -42.5 -42t-15.5 -66q0 -45 24.5 -78t70.5 -33h650v-263h-695q-156 0 -247 117q-82 105 -82 258z " />
<glyph unicode="F" d="M58 4v621q0 172 34 293q41 144 130 221q101 87 267 87h598v-258h-598q-101 0 -141 -109q-13 -36 -20 -109h759v-257v-7h-759v-482h-270zM58 4z" />
<glyph unicode="G" d="M38 605q0 250 114 426q126 195 338 195h597v-258h-552q-100 0 -157 -106q-51 -95 -51 -235q0 -144 53 -246q58 -112 155 -112l107 -5h134q42 0 66 34.5t24 79.5t-23 76.5t-67 31.5h-134v264h178q155 0 245 -116q81 -104 81 -257q0 -152 -81 -257q-90 -116 -245 -116h-178 h-152q-215 0 -340 187q-112 168 -112 414z" />
<glyph unicode="H" d="M58 4v1222h270v-476h488v476h271v-1222h-271v482h-488v-482h-270zM58 4z" />
<glyph unicode="I" horiz-adv-x="382" d="M58 4v1222h270v-1222h-270zM58 4z" />
<glyph unicode="J" d="M61 4v265h481q132 0 206 122q65 107 65 261v574h271v-574q1 -10 2 -28.5t1 -31.5q0 -123 -28 -223q-43 -155 -150 -247q-137 -118 -367 -118h-481z" />
<glyph unicode="K" horiz-adv-x="1151" d="M58 4v1222h270v-298l774 307v-293l-733 -312v-46l733 -319v-288l-774 306v-279h-270zM58 4z" />
<glyph unicode="L" d="M55 592q0 28 0.5 39.5t2.5 20.5v574h270v-574q0 -155 65 -261q75 -122 207 -122h487v-265h-487q-231 0 -366 116q-106 91 -150 248q-29 103 -29 224z" />
<glyph unicode="M" horiz-adv-x="1870" d="M58 4v980q0 134 101 204q87 60 223 60q182 0 289 -183q72 -122 137 -395q72 -300 105 -372q10 -23 28.5 -36t38.5 -13q18 0 28.5 12t10.5 37v686q0 134 101 204q87 60 223 60q111 0 196 -78q91 -84 138 -249l261 -917h-278l-65 256q-78 297 -137 473q-82 249 -121 249h-2 q-27 -6 -36.5 -20.5t-9.5 -40.5v-671q0 -116 -96 -192q-90 -71 -215 -71q-108 0 -194 57q-96 64 -136 183q-8 24 -73 260q-59 214 -103 335q-59 160 -97 160h-2q-25 -6 -35 -20.5t-10 -40.5v-917h-270z" />
<glyph unicode="N" horiz-adv-x="1343" d="M58 4v980q0 134 101 204q87 60 223 60q182 0 289 -183q72 -122 137 -395q72 -300 105 -372q18 -39 55 -39q20 0 34.5 16t14.5 44v916h272v-985q0 -116 -96 -192q-90 -71 -215 -71q-108 0 -194 57q-96 64 -136 183q-8 24 -73 260q-59 214 -103 335q-59 160 -97 160h-2 q-25 -6 -35 -20.5t-10 -40.5v-917h-270z" />
<glyph unicode="O" horiz-adv-x="1327" d="M6 605q0 250 114 426q126 195 337 195h399q211 0 337 -195q114 -176 114 -427q0 -246 -111 -413q-124 -187 -340 -187h-399q-215 0 -339 187q-112 168 -112 414zM295 627q0 -145 52 -246q58 -112 155 -112h309q96 0 154 112q53 102 53 246q0 140 -51 235 q-57 106 -156 106h-309q-99 0 -156 -106q-51 -95 -51 -235z" />
<glyph unicode="P" d="M67 4v83v139v183q0 146 72 236q84 105 247 105h331q46 0 71 31.5t25 74.5q0 46 -24 77q-27 35 -72 35h-650v258h695q156 0 247 -115q82 -104 82 -255q0 -150 -82 -254q-91 -116 -247 -116h-260q-100 0 -143 -67q-29 -46 -29 -115q0 -25 0.5 -30t2.5 -10v-260h-266z" />
<glyph unicode="Q" horiz-adv-x="1327" d="M6 605q0 250 114 426q126 195 337 195h399q211 0 337 -194q114 -176 114 -427q0 -175 -61 -318l50 -22v-288l-225 90q-45 -30 -99 -46.5t-116 -16.5h-399q-215 0 -339 187q-112 168 -112 414zM295 627q0 -145 52 -246q58 -112 155 -112h61v309l413 -177q21 46 32 106 t11 120q0 140 -51 235q-57 106 -157 106h-309q-99 0 -156 -106q-51 -95 -51 -235z" />
<glyph unicode="R" horiz-adv-x="1151" d="M67 4v405q0 146 72 236q84 105 247 105h331q46 0 71 31.5t25 74.5q0 46 -24 77q-27 35 -72 35h-650v258h695q156 0 247 -115q82 -104 82 -255q0 -150 -82 -254q-91 -116 -247 -116h-168l508 -194v-288l-769 304v-304h-266z" />
<glyph unicode="S" d="M63 856q0 150 82 254q92 116 247 116h695v-258h-650q-44 0 -69.5 -33.5t-25.5 -78.5q0 -44 24.5 -75t70.5 -31h383q155 0 245 -116q81 -104 81 -257q0 -152 -81 -257q-90 -116 -245 -116h-697v260h653q42 0 66 34.5t24 79.5t-23 76.5t-67 31.5h-384q-156 0 -247 115 q-82 103 -82 255z" />
<glyph unicode="T" horiz-adv-x="859" d="M18 968v258h818v-258h-276v-964h-267v964h-275z" />
<glyph unicode="U" d="M51 442v784h265v-740q0 -96 82 -154q75 -53 181 -53q102 0 172 51q78 57 78 156v740h257v-784q0 -212 -164 -338q-148 -114 -362 -114q-208 0 -350 112q-159 125 -159 340z" />
<glyph unicode="V" horiz-adv-x="1263" d="M4 1217h290l318 -949q3 -15 21 -15t26 15l311 949h293q-39 -134 -107 -349l-160 -494q-86 -256 -107 -287q-35 -50 -105.5 -78t-149.5 -28q-81 0 -149.5 27t-104.5 79q-22 29 -108 286l-158 494z" />
<glyph unicode="W" horiz-adv-x="1885" d="M-40 1210h277l276 -898q0 -30 20 -48q16 -14 29 -14q26 0 36 17t10 45v644q0 118 99 195q93 72 221 72q111 0 194 -57q93 -64 127 -187l218 -667q15 -42 30 -55q10 -9 27 -7q29 8 37 18t8 44v898h271v-961q0 -134 -101 -204q-87 -60 -223 -60q-122 0 -205 68 q-78 63 -132 197l-194 658q-10 23 -24.5 34t-30.5 11q-21 0 -35.5 -18t-14.5 -48v-637q0 -135 -102 -205q-87 -60 -224 -60q-111 0 -196 78q-92 84 -138 249z" />
<glyph unicode="X" horiz-adv-x="1258" d="M-4 4l98 157l180 291l89 158l-367 607h314l293 -449q3 -15 21 -15t26 15l287 449h317l-359 -607l359 -606h-317l-287 448q-8 15 -26 15t-21 -15l-293 -448h-314z" />
<glyph unicode="Y" horiz-adv-x="1197" d="M-31 1217h314l293 -449q3 -15 21 -15t26 15l287 449h317l-496 -768v-445h-271v445zM460 4z" />
<glyph unicode="Z" horiz-adv-x="1213" d="M48 306q0 108 56 194q62 95 179 135l549 220q29 0 46.5 19t15.5 36q-9 32 -12 36q-7 9 -29 9h-780v271h843q131 0 208 -86q70 -78 70 -196q0 -107 -61 -196q-67 -97 -184 -136l-594 -241q-21 0 -31.5 -11.5t-10.5 -28.5q0 -22 16 -39t46 -17h753v-271h-821 q-116 0 -190 93q-69 87 -69 209z" />
<glyph unicode="[" horiz-adv-x="634" d="M165 60v906q0 66 66 66h252q67 0 67 -66v-22q0 -67 -67 -67h-128v-728h124q66 0 66 -67v-22q0 -66 -66 -66h-248q-66 0 -66 66z" />
<glyph unicode="\" horiz-adv-x="1330" d="M91 977q0 24 19.5 39.5t55.5 15.5h61q9 0 24 -6.5t22 -12.5l935 -904q30 -29 30 -59q0 -25 -20.5 -40.5t-55.5 -15.5h-60q-10 0 -24.5 6t-21.5 13l-935 905q-30 30 -30 59z" />
<glyph unicode="]" horiz-adv-x="634" d="M83 60v22q0 67 67 67h129v728h-124q-68 0 -68 67v22q0 66 68 66h247q67 0 67 -66v-906q0 -66 -67 -66h-252q-67 0 -67 66z" />
<glyph unicode="^" horiz-adv-x="644" d="M77 1369l175 115h161l175 -115h-175l-77 59l-84 -59h-175z" />
<glyph unicode="_" horiz-adv-x="1376" d="M50 -162q0 68 66 68h1133q67 0 67 -68v-46q0 -66 -67 -66h-1133q-66 0 -66 66v46z" />
<glyph unicode="`" horiz-adv-x="504" d="M83 1484h161l175 -115h-175z" />
<glyph unicode="a" horiz-adv-x="1264" d="M5 4q25 87 107 346l161 490q87 257 106 286q36 51 105 78t150 27t149.5 -27t104.5 -78q22 -30 108 -284q53 -156 158 -490l110 -348h-289l-319 940q-3 15 -21 15q-17 0 -25 -15l-312 -940h-293z" />
<glyph unicode="b" d="M67 4v255h650q45 0 72 35q24 31 24 77q0 45 -23 74q-26 33 -73 33h-650v272h650q46 0 71 31.5t25 74.5q0 46 -24 77q-27 35 -72 35h-650v258h695q155 0 249 -120q85 -109 85 -260q0 -67 -19.5 -127t-57.5 -105q37 -48 55.5 -108t18.5 -128q0 -150 -83 -256 q-92 -118 -248 -118h-695z" />
<glyph unicode="c" d="M38 605q0 250 114 426q126 195 338 195h597v-258h-552q-100 0 -157 -106q-51 -95 -51 -235q0 -144 53 -246q58 -112 155 -112h552v-265h-597q-215 0 -340 187q-112 168 -112 414z" />
<glyph unicode="d" d="M58 4v1222h597q212 0 338 -194q114 -175 114 -427q0 -246 -112 -414q-125 -187 -340 -187h-597zM328 269h282q96 0 154 112q53 102 53 246q0 140 -51 235q-57 106 -156 106h-282v-699z" />
<glyph unicode="e" d="M63 379q0 138 69 239q-69 101 -69 237q0 150 82 255q91 116 247 116h695v-258h-650q-44 0 -69.5 -33.5t-25.5 -78.5q0 -44 24.5 -75t70.5 -31h650v-257v-7h-687q-27 -12 -42.5 -42t-15.5 -66q0 -45 24.5 -78t70.5 -33h650v-263h-695q-156 0 -247 117q-82 105 -82 258z " />
<glyph unicode="f" d="M58 4v621q0 172 34 293q41 144 130 221q101 87 267 87h598v-258h-598q-101 0 -141 -109q-13 -36 -20 -109h759v-257v-7h-759v-482h-270zM58 4z" />
<glyph unicode="g" d="M38 605q0 250 114 426q126 195 338 195h597v-258h-552q-100 0 -157 -106q-51 -95 -51 -235q0 -144 53 -246q58 -112 155 -112l107 -5h134q42 0 66 34.5t24 79.5t-23 76.5t-67 31.5h-134v264h178q155 0 245 -116q81 -104 81 -257q0 -152 -81 -257q-90 -116 -245 -116h-178 h-152q-215 0 -340 187q-112 168 -112 414z" />
<glyph unicode="h" d="M58 4v1222h270v-476h488v476h271v-1222h-271v482h-488v-482h-270zM58 4z" />
<glyph unicode="i" horiz-adv-x="382" d="M58 4v1222h270v-1222h-270zM66 1402q0 43 30.5 66t78.5 23q47 0 78 -23t31 -66q0 -41 -32 -61q-28 -17 -77 -17q-51 0 -77 16q-32 19 -32 62zM105 1406q0 -26 17.5 -33t52.5 -7q37 0 50 5q20 8 20 35t-19 38.5t-51 11.5q-33 0 -51.5 -11t-18.5 -39z" />
<glyph unicode="j" d="M61 4v265h481q132 0 206 122q65 107 65 261v574h271v-574q1 -10 2 -28.5t1 -31.5q0 -123 -28 -223q-43 -155 -150 -247q-137 -118 -367 -118h-481z" />
<glyph unicode="k" horiz-adv-x="1151" d="M58 4v1222h270v-298l774 307v-293l-733 -312v-46l733 -319v-288l-774 306v-279h-270zM58 4z" />
<glyph unicode="l" d="M55 592q0 28 0.5 39.5t2.5 20.5v574h270v-574q0 -155 65 -261q75 -122 207 -122h487v-265h-487q-231 0 -366 116q-106 91 -150 248q-29 103 -29 224z" />
<glyph unicode="m" horiz-adv-x="1870" d="M58 4v980q0 134 101 204q87 60 223 60q182 0 289 -183q72 -122 137 -395q72 -300 105 -372q10 -23 28.5 -36t38.5 -13q18 0 28.5 12t10.5 37v686q0 134 101 204q87 60 223 60q111 0 196 -78q91 -84 138 -249l261 -917h-278l-65 256q-78 297 -137 473q-82 249 -121 249h-2 q-27 -6 -36.5 -20.5t-9.5 -40.5v-671q0 -116 -96 -192q-90 -71 -215 -71q-108 0 -194 57q-96 64 -136 183q-8 24 -73 260q-59 214 -103 335q-59 160 -97 160h-2q-25 -6 -35 -20.5t-10 -40.5v-917h-270z" />
<glyph unicode="n" horiz-adv-x="1343" d="M58 4v980q0 134 101 204q87 60 223 60q182 0 289 -183q72 -122 137 -395q72 -300 105 -372q18 -39 55 -39q20 0 34.5 16t14.5 44v916h272v-985q0 -116 -96 -192q-90 -71 -215 -71q-108 0 -194 57q-96 64 -136 183q-8 24 -73 260q-59 214 -103 335q-59 160 -97 160h-2 q-25 -6 -35 -20.5t-10 -40.5v-917h-270z" />
<glyph unicode="o" horiz-adv-x="1327" d="M6 605q0 250 114 426q126 195 337 195h399q211 0 337 -195q114 -176 114 -427q0 -246 -111 -413q-124 -187 -340 -187h-399q-215 0 -339 187q-112 168 -112 414zM295 627q0 -145 52 -246q58 -112 155 -112h309q96 0 154 112q53 102 53 246q0 140 -51 235 q-57 106 -156 106h-309q-99 0 -156 -106q-51 -95 -51 -235z" />
<glyph unicode="p" d="M67 4v83v139v183q0 146 72 236q84 105 247 105h331q46 0 71 31.5t25 74.5q0 46 -24 77q-27 35 -72 35h-650v258h695q156 0 247 -115q82 -104 82 -255q0 -150 -82 -254q-91 -116 -247 -116h-260q-100 0 -143 -67q-29 -46 -29 -115q0 -25 0.5 -30t2.5 -10v-260h-266z" />
<glyph unicode="q" horiz-adv-x="1327" d="M6 605q0 250 114 426q126 195 337 195h399q211 0 337 -194q114 -176 114 -427q0 -175 -61 -318l50 -22v-288l-225 90q-45 -30 -99 -46.5t-116 -16.5h-399q-215 0 -339 187q-112 168 -112 414zM295 627q0 -145 52 -246q58 -112 155 -112h61v309l413 -177q21 46 32 106 t11 120q0 140 -51 235q-57 106 -157 106h-309q-99 0 -156 -106q-51 -95 -51 -235z" />
<glyph unicode="r" horiz-adv-x="1151" d="M67 4v405q0 146 72 236q84 105 247 105h331q46 0 71 31.5t25 74.5q0 46 -24 77q-27 35 -72 35h-650v258h695q156 0 247 -115q82 -104 82 -255q0 -150 -82 -254q-91 -116 -247 -116h-168l508 -194v-288l-769 304v-304h-266z" />
<glyph unicode="s" d="M63 856q0 150 82 254q92 116 247 116h695v-258h-650q-44 0 -69.5 -33.5t-25.5 -78.5q0 -44 24.5 -75t70.5 -31h383q155 0 245 -116q81 -104 81 -257q0 -152 -81 -257q-90 -116 -245 -116h-697v260h653q42 0 66 34.5t24 79.5t-23 76.5t-67 31.5h-384q-156 0 -247 115 q-82 103 -82 255z" />
<glyph unicode="t" horiz-adv-x="859" d="M18 968v258h818v-258h-276v-964h-267v964h-275z" />
<glyph unicode="u" d="M51 442v784h265v-740q0 -96 82 -154q75 -53 181 -53q102 0 172 51q78 57 78 156v740h257v-784q0 -212 -164 -338q-148 -114 -362 -114q-208 0 -350 112q-159 125 -159 340z" />
<glyph unicode="v" horiz-adv-x="1263" d="M4 1217h290l318 -949q3 -15 21 -15t26 15l311 949h293q-39 -134 -107 -349l-160 -494q-86 -256 -107 -287q-35 -50 -105.5 -78t-149.5 -28q-81 0 -149.5 27t-104.5 79q-22 29 -108 286l-158 494z" />
<glyph unicode="w" horiz-adv-x="1885" d="M-40 1210h277l276 -898q0 -30 20 -48q16 -14 29 -14q26 0 36 17t10 45v644q0 118 99 195q93 72 221 72q111 0 194 -57q93 -64 127 -187l218 -667q15 -42 30 -55q10 -9 27 -7q29 8 37 18t8 44v898h271v-961q0 -134 -101 -204q-87 -60 -223 -60q-122 0 -205 68 q-78 63 -132 197l-194 658q-10 23 -24.5 34t-30.5 11q-21 0 -35.5 -18t-14.5 -48v-637q0 -135 -102 -205q-87 -60 -224 -60q-111 0 -196 78q-92 84 -138 249z" />
<glyph unicode="x" horiz-adv-x="1258" d="M-4 4l98 157l180 291l89 158l-367 607h314l293 -449q3 -15 21 -15t26 15l287 449h317l-359 -607l359 -606h-317l-287 448q-8 15 -26 15t-21 -15l-293 -448h-314z" />
<glyph unicode="y" horiz-adv-x="1197" d="M-31 1217h314l293 -449q3 -15 21 -15t26 15l287 449h317l-496 -768v-445h-271v445zM460 4z" />
<glyph unicode="z" horiz-adv-x="1213" d="M48 306q0 108 56 194q62 95 179 135l549 220q29 0 46.5 19t15.5 36q-9 32 -12 36q-7 9 -29 9h-780v271h843q131 0 208 -86q70 -78 70 -196q0 -107 -61 -196q-67 -97 -184 -136l-594 -241q-21 0 -31.5 -11.5t-10.5 -28.5q0 -22 16 -39t46 -17h753v-271h-821 q-116 0 -190 93q-69 87 -69 209z" />
<glyph unicode="{" horiz-adv-x="760" d="M176 510q0 45 57 66q21 7 25 10q12 8 12 19v438q0 55 50 88q56 37 165 37h74q36 0 56 -21t20 -50t-19.5 -49.5t-56.5 -20.5h-90l-2 -421q0 -56 -42 -92q22 -19 32 -39.5t10 -54.5l2 -426h90q28 0 44.5 -21t16.5 -49q0 -27 -15.5 -46t-45.5 -19h-73q-107 0 -161.5 34.5 t-54.5 87.5v441q0 20 -31.5 26.5t-47 23.5t-15.5 38z" />
<glyph unicode="|" horiz-adv-x="520" d="M165 -166v1221q0 66 66 66h56q68 0 68 -66v-1221q0 -67 -68 -67h-56q-66 0 -66 67z" />
<glyph unicode="}" horiz-adv-x="760" d="M128 1097q0 30 19.5 50.5t55.5 20.5h73q108 0 164 -37q51 -33 51 -88v-438q0 -12 18 -21q9 -4 20 -8q57 -21 57 -66q0 -47 -61 -61q-16 -3 -25 -9.5t-9 -17.5v-441q0 -53 -53.5 -87.5t-161.5 -34.5h-73q-30 0 -46 19t-16 46q0 28 17 49t45 21h90l1 426q0 34 10 53.5 t33 40.5q-43 38 -43 92l-1 421h-90q-35 0 -55 21t-20 49z" />
<glyph unicode="~" horiz-adv-x="308" d="M16 1434l58 60h74l36 -36l34 36h68l-60 -60h-86l-30 34l-26 -34h-68z" />
<glyph horiz-adv-x="504" d="M44 1361v131h130v-131h-130zM324 1361v131h130v-131h-130z" />
<glyph horiz-adv-x="364" d="M66 1402q0 43 30.5 66t78.5 23q47 0 78 -23t31 -66q0 -41 -32 -61q-28 -17 -77 -17q-51 0 -77 16q-32 19 -32 62zM105 1406q0 -26 17.5 -33t52.5 -7q37 0 50 5q20 8 20 35t-19 38.5t-51 11.5q-33 0 -51.5 -11t-18.5 -39z" />
<glyph unicode="&#xa1;" horiz-adv-x="382" d="M58 -376v817h270v-817h-270zM58 585v261h270v-261h-270zM328 846z" />
<glyph unicode="&#xaa;" horiz-adv-x="1264" d="M5 4q25 87 107 346l161 490q87 257 106 286q36 51 105 78t150 27t149.5 -27t104.5 -78q22 -30 108 -284q53 -156 158 -490l110 -348h-289l-319 940q-3 15 -21 15q-17 0 -25 -15l-312 -940h-293z" />
<glyph unicode="&#xad;" d="M58 4zM58 486v264h1029v-264h-1029z" />
<glyph unicode="&#xb2;" horiz-adv-x="1213" d="M51 311q0 107 55 191q61 94 177 133l549 220q29 0 46.5 19t15.5 36q-7 26 -21 35.5t-41 9.5h-780v271h843q134 0 215 -91q74 -83 74 -204q0 -105 -57 -189q-63 -92 -178 -130l-594 -241q-40 0 -40 -37q0 -23 18 -41t49 -18h753v-271h-821q-118 0 -193 94q-70 88 -70 213z " />
<glyph unicode="&#xb3;" d="M67 4v256h650q45 0 72 35q24 31 24 77q0 44 -23 73q-26 33 -73 33h-215v272h215q46 0 71 31.5t25 74.5q0 46 -24 77q-27 35 -72 35h-650v258h695q155 0 249 -120q85 -109 85 -260q0 -67 -19.5 -127t-57.5 -105q37 -48 55.5 -108t18.5 -128q0 -150 -83 -256 q-92 -118 -248 -118h-695z" />
<glyph unicode="&#xb9;" horiz-adv-x="382" d="M-157 932v280h9q5 0 13 1q84 0 162 -23q128 -38 202 -125q99 -117 99 -314v-747h-270v664q0 161 -80 226q-48 39 -119 39h-9q-4 0 -7 -1zM58 4z" />
<glyph unicode="&#xba;" horiz-adv-x="1327" d="M6 605q0 250 114 426q126 195 337 195h399q211 0 337 -195q114 -176 114 -427q0 -246 -111 -413q-124 -187 -340 -187h-399q-215 0 -339 187q-112 168 -112 414zM295 627q0 -145 52 -246q58 -112 155 -112h309q96 0 154 112q53 102 53 246q0 140 -51 235 q-57 106 -156 106h-309q-99 0 -156 -106q-51 -95 -51 -235z" />
<glyph unicode="&#xbf;" d="M49 -16q0 150 82 254q92 116 247 116h299q44 6 65 17q65 34 65 121h266q0 -172 -72 -278q-84 -124 -247 -124h-331q-46 0 -71 -31.5t-25 -74.5q0 -46 25.5 -79t70.5 -33h650v-258h-695q-156 0 -247 115q-82 103 -82 255zM812 575v261h270v-261h-270z" />
<glyph unicode="&#xc0;" horiz-adv-x="1264" d="M5 4q25 87 107 346l161 490q87 257 106 286q36 51 105 78t150 27t149.5 -27t104.5 -78q22 -30 108 -284q53 -156 158 -490l110 -348h-289l-319 940q-3 15 -21 15q-17 0 -25 -15l-312 -940h-293zM477 1491h161l175 -115h-175z" />
<glyph unicode="&#xc1;" horiz-adv-x="1264" d="M5 4q25 87 107 346l161 490q87 257 106 286q36 51 105 78t150 27t149.5 -27t104.5 -78q22 -30 108 -284q53 -156 158 -490l110 -348h-289l-319 940q-3 15 -21 15q-17 0 -25 -15l-312 -940h-293zM516 1369l175 115h161l-161 -115h-175z" />
<glyph unicode="&#xc2;" horiz-adv-x="1264" d="M5 4q25 87 107 346l161 490q87 257 106 286q36 51 105 78t150 27t149.5 -27t104.5 -78q22 -30 108 -284q53 -156 158 -490l110 -348h-289l-319 940q-3 15 -21 15q-17 0 -25 -15l-312 -940h-293zM350 1369l175 115h161l175 -115h-175l-77 59l-84 -59h-175z" />
<glyph unicode="&#xc3;" horiz-adv-x="1264" d="M5 4q25 87 107 346l161 490q87 257 106 286q36 51 105 78t150 27t149.5 -27t104.5 -78q22 -30 108 -284q53 -156 158 -490l110 -348h-289l-319 940q-3 15 -21 15q-17 0 -25 -15l-312 -940h-293zM513 1434l58 60h74l36 -36l34 36h68l-60 -60h-86l-30 34l-26 -34h-68z" />
<glyph unicode="&#xc4;" horiz-adv-x="1264" d="M5 4q25 87 107 346l161 490q87 257 106 286q36 51 105 78t150 27t149.5 -27t104.5 -78q22 -30 108 -284q53 -156 158 -490l110 -348h-289l-319 940q-3 15 -21 15q-17 0 -25 -15l-312 -940h-293zM443 1354v131h130v-131h-130zM723 1354v131h130v-131h-130z" />
<glyph unicode="&#xc5;" horiz-adv-x="1264" d="M5 4q25 87 107 346l161 490q87 257 106 286q36 51 105 78t150 27t149.5 -27t104.5 -78q22 -30 108 -284q53 -156 158 -490l110 -348h-289l-319 940q-3 15 -21 15q-17 0 -25 -15l-312 -940h-293zM521 1409q0 43 30.5 66t78.5 23q47 0 78 -23t31 -66q0 -41 -32 -61 q-28 -17 -77 -17q-51 0 -77 16q-32 19 -32 62zM560 1413q0 -26 17.5 -33t52.5 -7q37 0 50 5q20 8 20 35t-19 38.5t-51 11.5q-33 0 -51.5 -11t-18.5 -39z" />
<glyph unicode="&#xc6;" horiz-adv-x="1554" d="M5 4q21 70 105 321l146 429q73 214 74 214q50 108 142 172q75 52 172 74q66 15 142 15q24 0 34 -0.5t18 -2.5h607v-258h-484v-218h484v-264h-484v-219h484v-263h-789v940q0 15 -20 15q-18 0 -26 -15l-312 -940h-293z" />
<glyph unicode="&#xc7;" d="M38 605q0 250 114 426q126 195 338 195h597v-258h-552q-100 0 -157 -106q-51 -95 -51 -235q0 -144 53 -246q58 -112 155 -112h552v-265h-597q-215 0 -340 187q-112 168 -112 414zM462 -280h231q28 0 47 17t23 46q5 33 -16 58.5t-54 25.5h-135v154h100v-91h140 q49 -22 73.5 -58.5t24.5 -88.5q0 -116 -98 -161h-336v98z" />
<glyph unicode="&#xc8;" d="M63 379q0 138 69 239q-69 101 -69 237q0 150 82 255q91 116 247 116h695v-258h-650q-44 0 -69.5 -33.5t-25.5 -78.5q0 -44 24.5 -75t70.5 -31h650v-257v-7h-687q-27 -12 -42.5 -42t-15.5 -66q0 -45 24.5 -78t70.5 -33h650v-263h-695q-156 0 -247 117q-82 105 -82 258z M454 1484h161l175 -115h-175z" />
<glyph unicode="&#xc9;" d="M63 379q0 138 69 239q-69 101 -69 237q0 150 82 255q91 116 247 116h695v-258h-650q-44 0 -69.5 -33.5t-25.5 -78.5q0 -44 24.5 -75t70.5 -31h650v-257v-7h-687q-27 -12 -42.5 -42t-15.5 -66q0 -45 24.5 -78t70.5 -33h650v-263h-695q-156 0 -247 117q-82 105 -82 258z M481 1376l175 115h161l-161 -115h-175z" />
<glyph unicode="&#xca;" d="M63 379q0 138 69 239q-69 101 -69 237q0 150 82 255q91 116 247 116h695v-258h-650q-44 0 -69.5 -33.5t-25.5 -78.5q0 -44 24.5 -75t70.5 -31h650v-257v-7h-687q-27 -12 -42.5 -42t-15.5 -66q0 -45 24.5 -78t70.5 -33h650v-263h-695q-156 0 -247 117q-82 105 -82 258z M371 1369l175 115h161l175 -115h-175l-77 59l-84 -59h-175z" />
<glyph unicode="&#xcb;" d="M63 379q0 138 69 239q-69 101 -69 237q0 150 82 255q91 116 247 116h695v-258h-650q-44 0 -69.5 -33.5t-25.5 -78.5q0 -44 24.5 -75t70.5 -31h650v-257v-7h-687q-27 -12 -42.5 -42t-15.5 -66q0 -45 24.5 -78t70.5 -33h650v-263h-695q-156 0 -247 117q-82 105 -82 258z M408 1361v131h130v-131h-130zM688 1361v131h130v-131h-130z" />
<glyph unicode="&#xcc;" horiz-adv-x="382" d="M-57 1484h161l175 -115h-175zM58 4v1222h270v-1222h-270z" />
<glyph unicode="&#xcd;" horiz-adv-x="382" d="M58 4v1222h270v-1222h-270zM75 1369l175 115h161l-161 -115h-175z" />
<glyph unicode="&#xce;" horiz-adv-x="382" d="M-56 1376l175 115h161l175 -115h-175l-77 59l-84 -59h-175zM58 4v1222h270v-1222h-270z" />
<glyph unicode="&#xcf;" horiz-adv-x="382" d="M-12 1354v131h130v-131h-130zM58 4v1222h270v-1222h-270zM268 1354v131h130v-131h-130z" />
<glyph unicode="&#xd0;" d="M38 605q0 250 114 426q126 195 338 195h597v-258h-552q-100 0 -157 -106q-51 -95 -51 -235q0 -144 53 -246q58 -112 155 -112l107 -5h134q42 0 66 34.5t24 79.5t-23 76.5t-67 31.5h-134v264h178q155 0 245 -116q81 -104 81 -257q0 -152 -81 -257q-90 -116 -245 -116h-178 h-152q-215 0 -340 187q-112 168 -112 414zM463 1475h175l77 -59l84 59h175l-175 -115h-161z" />
<glyph unicode="&#xd1;" horiz-adv-x="1343" d="M58 4v980q0 134 101 204q87 60 223 60q182 0 289 -183q72 -122 137 -395q72 -300 105 -372q18 -39 55 -39q20 0 34.5 16t14.5 44v916h272v-985q0 -116 -96 -192q-90 -71 -215 -71q-108 0 -194 57q-96 64 -136 183q-8 24 -73 260q-59 214 -103 335q-59 160 -97 160h-2 q-25 -6 -35 -20.5t-10 -40.5v-917h-270zM541 1427l58 60h74l36 -36l34 36h68l-60 -60h-86l-30 34l-26 -34h-68z" />
<glyph unicode="&#xd2;" horiz-adv-x="1327" d="M6 605q0 250 114 426q126 195 337 195h399q211 0 337 -195q114 -176 114 -427q0 -246 -111 -413q-124 -187 -340 -187h-399q-215 0 -339 187q-112 168 -112 414zM295 627q0 -145 52 -246q58 -112 155 -112h309q96 0 154 112q53 102 53 246q0 140 -51 235 q-57 106 -156 106h-309q-99 0 -156 -106q-51 -95 -51 -235zM489 1498h161l175 -115h-175z" />
<glyph unicode="&#xd3;" horiz-adv-x="1327" d="M6 605q0 250 114 426q126 195 337 195h399q211 0 337 -195q114 -176 114 -427q0 -246 -111 -413q-124 -187 -340 -187h-399q-215 0 -339 187q-112 168 -112 414zM295 627q0 -145 52 -246q58 -112 155 -112h309q96 0 154 112q53 102 53 246q0 140 -51 235 q-57 106 -156 106h-309q-99 0 -156 -106q-51 -95 -51 -235zM537 1376l175 115h161l-161 -115h-175z" />
<glyph unicode="&#xd4;" horiz-adv-x="1327" d="M6 605q0 250 114 426q126 195 337 195h399q211 0 337 -195q114 -176 114 -427q0 -246 -111 -413q-124 -187 -340 -187h-399q-215 0 -339 187q-112 168 -112 414zM295 627q0 -145 52 -246q58 -112 155 -112h309q96 0 154 112q53 102 53 246q0 140 -51 235 q-57 106 -156 106h-309q-99 0 -156 -106q-51 -95 -51 -235zM427 1376l175 115h161l175 -115h-175l-77 59l-84 -59h-175z" />
<glyph unicode="&#xd5;" horiz-adv-x="1327" d="M6 605q0 250 114 426q126 195 337 195h399q211 0 337 -195q114 -176 114 -427q0 -246 -111 -413q-124 -187 -340 -187h-399q-215 0 -339 187q-112 168 -112 414zM295 627q0 -145 52 -246q58 -112 155 -112h309q96 0 154 112q53 102 53 246q0 140 -51 235 q-57 106 -156 106h-309q-99 0 -156 -106q-51 -95 -51 -235zM548 1427l58 60h74l36 -36l34 36h68l-60 -60h-86l-30 34l-26 -34h-68z" />
<glyph unicode="&#xd6;" horiz-adv-x="1327" d="M6 605q0 250 114 426q126 195 337 195h399q211 0 337 -195q114 -176 114 -427q0 -246 -111 -413q-124 -187 -340 -187h-399q-215 0 -339 187q-112 168 -112 414zM295 627q0 -145 52 -246q58 -112 155 -112h309q96 0 154 112q53 102 53 246q0 140 -51 235 q-57 106 -156 106h-309q-99 0 -156 -106q-51 -95 -51 -235zM471 1361v131h130v-131h-130zM751 1361v131h130v-131h-130z" />
<glyph unicode="&#xd8;" horiz-adv-x="1327" d="M6 605q0 250 114 426q126 195 337 195h399q211 0 337 -195q114 -176 114 -427q0 -246 -111 -413q-124 -187 -340 -187h-399q-215 0 -339 187q-112 168 -112 414zM84 134q0 29 30 59l936 904q19 19 45 19h61q35 0 55.5 -15.5t20.5 -40.5q0 -28 -30 -58l-935 -905 q-7 -7 -22 -13t-24 -6h-61q-35 0 -55.5 15.5t-20.5 40.5zM295 627q0 -145 52 -246q58 -112 155 -112h309q96 0 154 112q53 102 53 246q0 140 -51 235q-57 106 -156 106h-309q-99 0 -156 -106q-51 -95 -51 -235z" />
<glyph unicode="&#xd9;" d="M51 442v784h265v-740q0 -96 82 -154q75 -53 181 -53q102 0 172 51q78 57 78 156v740h257v-784q0 -212 -164 -338q-148 -114 -362 -114q-208 0 -350 112q-159 125 -159 340zM405 1484h161l175 -115h-175z" />
<glyph unicode="&#xda;" d="M51 442v784h265v-740q0 -96 82 -154q75 -53 181 -53q102 0 172 51q78 57 78 156v740h257v-784q0 -212 -164 -338q-148 -114 -362 -114q-208 0 -350 112q-159 125 -159 340zM425 1369l175 115h161l-161 -115h-175z" />
<glyph unicode="&#xdb;" d="M51 442v784h265v-740q0 -96 82 -154q75 -53 181 -53q102 0 172 51q78 57 78 156v740h257v-784q0 -212 -164 -338q-148 -114 -362 -114q-208 0 -350 112q-159 125 -159 340zM322 1369l175 115h161l175 -115h-175l-77 59l-84 -59h-175z" />
<glyph unicode="&#xdc;" d="M51 442v784h265v-740q0 -96 82 -154q75 -53 181 -53q102 0 172 51q78 57 78 156v740h257v-784q0 -212 -164 -338q-148 -114 -362 -114q-208 0 -350 112q-159 125 -159 340zM380 1347v131h130v-131h-130zM660 1347v131h130v-131h-130z" />
<glyph unicode="&#xdd;" horiz-adv-x="382" d="M58 4v1222h270v-1222h-270zM66 1402q0 43 30.5 66t78.5 23q47 0 78 -23t31 -66q0 -41 -32 -61q-28 -17 -77 -17q-51 0 -77 16q-32 19 -32 62zM105 1406q0 -26 17.5 -33t52.5 -7q37 0 50 5q20 8 20 35t-19 38.5t-51 11.5q-33 0 -51.5 -11t-18.5 -39z" />
<glyph unicode="&#xde;" d="M63 856q0 150 82 254q92 116 247 116h695v-258h-650q-44 0 -69.5 -33.5t-25.5 -78.5q0 -44 24.5 -75t70.5 -31h383q155 0 245 -116q81 -104 81 -257q0 -152 -81 -257q-90 -116 -245 -116h-697v260h653q42 0 66 34.5t24 79.5t-23 76.5t-67 31.5h-384q-156 0 -247 115 q-82 103 -82 255zM401 -269h231q28 0 47 17t23 46q5 33 -16 58.5t-54 25.5h-135v154h100v-91h140q49 -22 73.5 -58.5t24.5 -88.5q0 -116 -98 -161h-336v98z" />
<glyph unicode="&#xdf;" d="M67 4v964q4 30 9 61q19 69 70 118q70 67 190 79h426q155 0 249 -120q85 -109 85 -260q0 -67 -19.5 -127t-57.5 -105q37 -48 55.5 -108t18.5 -128q0 -150 -83 -256q-92 -118 -248 -118h-260v256h215q45 0 72 35q24 31 24 77q0 44 -23 73q-26 33 -73 33h-215v272h215 q46 0 71 31.5t25 75.5q0 45 -24 76q-27 35 -72 35h-381v-964h-269z" />
<glyph unicode="&#xe0;" horiz-adv-x="1264" d="M5 4q25 87 107 346l161 490q87 257 106 286q36 51 105 78t150 27t149.5 -27t104.5 -78q22 -30 108 -284q53 -156 158 -490l110 -348h-289l-319 940q-3 15 -21 15q-17 0 -25 -15l-312 -940h-293zM477 1491h161l175 -115h-175z" />
<glyph unicode="&#xe1;" horiz-adv-x="1264" d="M5 4q25 87 107 346l161 490q87 257 106 286q36 51 105 78t150 27t149.5 -27t104.5 -78q22 -30 108 -284q53 -156 158 -490l110 -348h-289l-319 940q-3 15 -21 15q-17 0 -25 -15l-312 -940h-293zM516 1369l175 115h161l-161 -115h-175z" />
<glyph unicode="&#xe2;" horiz-adv-x="1264" d="M5 4q25 87 107 346l161 490q87 257 106 286q36 51 105 78t150 27t149.5 -27t104.5 -78q22 -30 108 -284q53 -156 158 -490l110 -348h-289l-319 940q-3 15 -21 15q-17 0 -25 -15l-312 -940h-293zM350 1369l175 115h161l175 -115h-175l-77 59l-84 -59h-175z" />
<glyph unicode="&#xe3;" horiz-adv-x="1264" d="M5 4q25 87 107 346l161 490q87 257 106 286q36 51 105 78t150 27t149.5 -27t104.5 -78q22 -30 108 -284q53 -156 158 -490l110 -348h-289l-319 940q-3 15 -21 15q-17 0 -25 -15l-312 -940h-293zM513 1434l58 60h74l36 -36l34 36h68l-60 -60h-86l-30 34l-26 -34h-68z" />
<glyph unicode="&#xe4;" horiz-adv-x="1264" d="M5 4q25 87 107 346l161 490q87 257 106 286q36 51 105 78t150 27t149.5 -27t104.5 -78q22 -30 108 -284q53 -156 158 -490l110 -348h-289l-319 940q-3 15 -21 15q-17 0 -25 -15l-312 -940h-293zM443 1354v131h130v-131h-130zM723 1354v131h130v-131h-130z" />
<glyph unicode="&#xe5;" horiz-adv-x="1264" d="M5 4q25 87 107 346l161 490q87 257 106 286q36 51 105 78t150 27t149.5 -27t104.5 -78q22 -30 108 -284q53 -156 158 -490l110 -348h-289l-319 940q-3 15 -21 15q-17 0 -25 -15l-312 -940h-293zM521 1409q0 43 30.5 66t78.5 23q47 0 78 -23t31 -66q0 -41 -32 -61 q-28 -17 -77 -17q-51 0 -77 16q-32 19 -32 62zM560 1413q0 -26 17.5 -33t52.5 -7q37 0 50 5q20 8 20 35t-19 38.5t-51 11.5q-33 0 -51.5 -11t-18.5 -39z" />
<glyph unicode="&#xe6;" horiz-adv-x="1554" d="M5 4q21 70 105 321l146 429q73 214 74 214q50 108 142 172q75 52 172 74q66 15 142 15q24 0 34 -0.5t18 -2.5h607v-258h-484v-218h484v-264h-484v-219h484v-263h-789v940q0 15 -20 15q-18 0 -26 -15l-312 -940h-293z" />
<glyph unicode="&#xe7;" d="M38 605q0 250 114 426q126 195 338 195h597v-258h-552q-100 0 -157 -106q-51 -95 -51 -235q0 -144 53 -246q58 -112 155 -112h552v-265h-597q-215 0 -340 187q-112 168 -112 414zM462 -280h231q28 0 47 17t23 46q5 33 -16 58.5t-54 25.5h-135v154h100v-91h140 q49 -22 73.5 -58.5t24.5 -88.5q0 -116 -98 -161h-336v98z" />
<glyph unicode="&#xe8;" d="M63 379q0 138 69 239q-69 101 -69 237q0 150 82 255q91 116 247 116h695v-258h-650q-44 0 -69.5 -33.5t-25.5 -78.5q0 -44 24.5 -75t70.5 -31h650v-257v-7h-687q-27 -12 -42.5 -42t-15.5 -66q0 -45 24.5 -78t70.5 -33h650v-263h-695q-156 0 -247 117q-82 105 -82 258z M454 1484h161l175 -115h-175z" />
<glyph unicode="&#xe9;" d="M63 379q0 138 69 239q-69 101 -69 237q0 150 82 255q91 116 247 116h695v-258h-650q-44 0 -69.5 -33.5t-25.5 -78.5q0 -44 24.5 -75t70.5 -31h650v-257v-7h-687q-27 -12 -42.5 -42t-15.5 -66q0 -45 24.5 -78t70.5 -33h650v-263h-695q-156 0 -247 117q-82 105 -82 258z M481 1376l175 115h161l-161 -115h-175z" />
<glyph unicode="&#xea;" d="M63 379q0 138 69 239q-69 101 -69 237q0 150 82 255q91 116 247 116h695v-258h-650q-44 0 -69.5 -33.5t-25.5 -78.5q0 -44 24.5 -75t70.5 -31h650v-257v-7h-687q-27 -12 -42.5 -42t-15.5 -66q0 -45 24.5 -78t70.5 -33h650v-263h-695q-156 0 -247 117q-82 105 -82 258z M371 1369l175 115h161l175 -115h-175l-77 59l-84 -59h-175z" />
<glyph unicode="&#xeb;" d="M63 379q0 138 69 239q-69 101 -69 237q0 150 82 255q91 116 247 116h695v-258h-650q-44 0 -69.5 -33.5t-25.5 -78.5q0 -44 24.5 -75t70.5 -31h650v-257v-7h-687q-27 -12 -42.5 -42t-15.5 -66q0 -45 24.5 -78t70.5 -33h650v-263h-695q-156 0 -247 117q-82 105 -82 258z M408 1361v131h130v-131h-130zM688 1361v131h130v-131h-130z" />
<glyph unicode="&#xec;" horiz-adv-x="382" d="M-57 1484h161l175 -115h-175zM58 4v1222h270v-1222h-270z" />
<glyph unicode="&#xed;" horiz-adv-x="382" d="M58 4v1222h270v-1222h-270zM75 1369l175 115h161l-161 -115h-175z" />
<glyph unicode="&#xee;" horiz-adv-x="382" d="M-56 1376l175 115h161l175 -115h-175l-77 59l-84 -59h-175zM58 4v1222h270v-1222h-270z" />
<glyph unicode="&#xef;" horiz-adv-x="382" d="M-12 1354v131h130v-131h-130zM58 4v1222h270v-1222h-270zM268 1354v131h130v-131h-130z" />
<glyph unicode="&#xf0;" d="M38 605q0 250 114 426q126 195 338 195h597v-258h-552q-100 0 -157 -106q-51 -95 -51 -235q0 -144 53 -246q58 -112 155 -112l107 -5h134q42 0 66 34.5t24 79.5t-23 76.5t-67 31.5h-134v264h178q155 0 245 -116q81 -104 81 -257q0 -152 -81 -257q-90 -116 -245 -116h-178 h-152q-215 0 -340 187q-112 168 -112 414zM463 1475h175l77 -59l84 59h175l-175 -115h-161z" />
<glyph unicode="&#xf1;" horiz-adv-x="1343" d="M58 4v980q0 134 101 204q87 60 223 60q182 0 289 -183q72 -122 137 -395q72 -300 105 -372q18 -39 55 -39q20 0 34.5 16t14.5 44v916h272v-985q0 -116 -96 -192q-90 -71 -215 -71q-108 0 -194 57q-96 64 -136 183q-8 24 -73 260q-59 214 -103 335q-59 160 -97 160h-2 q-25 -6 -35 -20.5t-10 -40.5v-917h-270zM541 1427l58 60h74l36 -36l34 36h68l-60 -60h-86l-30 34l-26 -34h-68z" />
<glyph unicode="&#xf2;" horiz-adv-x="1327" d="M6 605q0 250 114 426q126 195 337 195h399q211 0 337 -195q114 -176 114 -427q0 -246 -111 -413q-124 -187 -340 -187h-399q-215 0 -339 187q-112 168 -112 414zM295 627q0 -145 52 -246q58 -112 155 -112h309q96 0 154 112q53 102 53 246q0 140 -51 235 q-57 106 -156 106h-309q-99 0 -156 -106q-51 -95 -51 -235zM489 1498h161l175 -115h-175z" />
<glyph unicode="&#xf3;" horiz-adv-x="1327" d="M6 605q0 250 114 426q126 195 337 195h399q211 0 337 -195q114 -176 114 -427q0 -246 -111 -413q-124 -187 -340 -187h-399q-215 0 -339 187q-112 168 -112 414zM295 627q0 -145 52 -246q58 -112 155 -112h309q96 0 154 112q53 102 53 246q0 140 -51 235 q-57 106 -156 106h-309q-99 0 -156 -106q-51 -95 -51 -235zM537 1376l175 115h161l-161 -115h-175z" />
<glyph unicode="&#xf4;" horiz-adv-x="1327" d="M6 605q0 250 114 426q126 195 337 195h399q211 0 337 -195q114 -176 114 -427q0 -246 -111 -413q-124 -187 -340 -187h-399q-215 0 -339 187q-112 168 -112 414zM295 627q0 -145 52 -246q58 -112 155 -112h309q96 0 154 112q53 102 53 246q0 140 -51 235 q-57 106 -156 106h-309q-99 0 -156 -106q-51 -95 -51 -235zM427 1376l175 115h161l175 -115h-175l-77 59l-84 -59h-175z" />
<glyph unicode="&#xf5;" horiz-adv-x="1327" d="M6 605q0 250 114 426q126 195 337 195h399q211 0 337 -195q114 -176 114 -427q0 -246 -111 -413q-124 -187 -340 -187h-399q-215 0 -339 187q-112 168 -112 414zM295 627q0 -145 52 -246q58 -112 155 -112h309q96 0 154 112q53 102 53 246q0 140 -51 235 q-57 106 -156 106h-309q-99 0 -156 -106q-51 -95 -51 -235zM548 1427l58 60h74l36 -36l34 36h68l-60 -60h-86l-30 34l-26 -34h-68z" />
<glyph unicode="&#xf6;" horiz-adv-x="1327" d="M6 605q0 250 114 426q126 195 337 195h399q211 0 337 -195q114 -176 114 -427q0 -246 -111 -413q-124 -187 -340 -187h-399q-215 0 -339 187q-112 168 -112 414zM295 627q0 -145 52 -246q58 -112 155 -112h309q96 0 154 112q53 102 53 246q0 140 -51 235 q-57 106 -156 106h-309q-99 0 -156 -106q-51 -95 -51 -235zM471 1361v131h130v-131h-130zM751 1361v131h130v-131h-130z" />
<glyph unicode="&#xf8;" horiz-adv-x="1327" d="M6 605q0 250 114 426q126 195 337 195h399q211 0 337 -195q114 -176 114 -427q0 -246 -111 -413q-124 -187 -340 -187h-399q-215 0 -339 187q-112 168 -112 414zM84 134q0 29 30 59l936 904q19 19 45 19h61q35 0 55.5 -15.5t20.5 -40.5q0 -28 -30 -58l-935 -905 q-7 -7 -22 -13t-24 -6h-61q-35 0 -55.5 15.5t-20.5 40.5zM295 627q0 -145 52 -246q58 -112 155 -112h309q96 0 154 112q53 102 53 246q0 140 -51 235q-57 106 -156 106h-309q-99 0 -156 -106q-51 -95 -51 -235z" />
<glyph unicode="&#xf9;" d="M51 442v784h265v-740q0 -96 82 -154q75 -53 181 -53q102 0 172 51q78 57 78 156v740h257v-784q0 -212 -164 -338q-148 -114 -362 -114q-208 0 -350 112q-159 125 -159 340zM405 1484h161l175 -115h-175z" />
<glyph unicode="&#xfa;" d="M51 442v784h265v-740q0 -96 82 -154q75 -53 181 -53q102 0 172 51q78 57 78 156v740h257v-784q0 -212 -164 -338q-148 -114 -362 -114q-208 0 -350 112q-159 125 -159 340zM425 1369l175 115h161l-161 -115h-175z" />
<glyph unicode="&#xfb;" d="M51 442v784h265v-740q0 -96 82 -154q75 -53 181 -53q102 0 172 51q78 57 78 156v740h257v-784q0 -212 -164 -338q-148 -114 -362 -114q-208 0 -350 112q-159 125 -159 340zM322 1369l175 115h161l175 -115h-175l-77 59l-84 -59h-175z" />
<glyph unicode="&#xfc;" d="M51 442v784h265v-740q0 -96 82 -154q75 -53 181 -53q102 0 172 51q78 57 78 156v740h257v-784q0 -212 -164 -338q-148 -114 -362 -114q-208 0 -350 112q-159 125 -159 340zM380 1347v131h130v-131h-130zM660 1347v131h130v-131h-130z" />
<glyph unicode="&#xfd;" horiz-adv-x="382" d="M58 4v1222h270v-1222h-270zM58 4z" />
<glyph unicode="&#xfe;" d="M63 856q0 150 82 254q92 116 247 116h695v-258h-650q-44 0 -69.5 -33.5t-25.5 -78.5q0 -44 24.5 -75t70.5 -31h383q155 0 245 -116q81 -104 81 -257q0 -152 -81 -257q-90 -116 -245 -116h-697v260h653q42 0 66 34.5t24 79.5t-23 76.5t-67 31.5h-384q-156 0 -247 115 q-82 103 -82 255zM401 -269h231q28 0 47 17t23 46q5 33 -16 58.5t-54 25.5h-135v154h100v-91h140q49 -22 73.5 -58.5t24.5 -88.5q0 -116 -98 -161h-336v98z" />
<glyph unicode="&#xff;" horiz-adv-x="1197" d="M-31 1217h314l293 -449q3 -15 21 -15t26 15l287 449h317l-496 -768v-445h-271v445zM404 1361v131h130v-131h-130zM684 1361v131h130v-131h-130z" />
<glyph unicode="&#x152;" horiz-adv-x="2468" d="M6 605q0 250 114 426q126 195 337 195h399q211 0 337 -195q114 -176 114 -427q0 -246 -111 -413q-124 -187 -340 -187h-399q-215 0 -339 187q-112 168 -112 414zM295 627q0 -145 52 -246q58 -112 155 -112h309q96 0 154 112q53 102 53 246q0 140 -51 235 q-57 106 -156 106h-309q-99 0 -156 -106q-51 -95 -51 -235zM1390 379q0 138 69 239q-69 101 -69 237q0 150 82 255q91 116 247 116h695v-258h-650q-44 0 -69.5 -33.5t-25.5 -78.5q0 -44 24.5 -75t70.5 -31h650v-257v-7h-687q-27 -12 -42.5 -42t-15.5 -66q0 -45 24.5 -78 t70.5 -33h650v-263h-695q-156 0 -247 117q-82 105 -82 258z" />
<glyph unicode="&#x153;" horiz-adv-x="2468" d="M6 605q0 250 114 426q126 195 337 195h399q211 0 337 -195q114 -176 114 -427q0 -246 -111 -413q-124 -187 -340 -187h-399q-215 0 -339 187q-112 168 -112 414zM295 627q0 -145 52 -246q58 -112 155 -112h309q96 0 154 112q53 102 53 246q0 140 -51 235 q-57 106 -156 106h-309q-99 0 -156 -106q-51 -95 -51 -235zM1390 379q0 138 69 239q-69 101 -69 237q0 150 82 255q91 116 247 116h695v-258h-650q-44 0 -69.5 -33.5t-25.5 -78.5q0 -44 24.5 -75t70.5 -31h650v-257v-7h-687q-27 -12 -42.5 -42t-15.5 -66q0 -45 24.5 -78 t70.5 -33h650v-263h-695q-156 0 -247 117q-82 105 -82 258z" />
<glyph unicode="&#x2c6;" horiz-adv-x="644" d="M77 1369l175 115h161l175 -115h-175l-77 59l-84 -59h-175z" />
<glyph unicode="&#x2dc;" horiz-adv-x="602" d="M-135 122l58 60h74l36 -36l34 36h68l-60 -60h-86l-30 34l-26 -34h-68z" />
<glyph unicode="&#x2013;" horiz-adv-x="1629" d="M182 483v47q0 67 66 67h1133q67 0 67 -67v-47q0 -66 -67 -66h-1133q-66 0 -66 66z" />
<glyph unicode="&#x2014;" horiz-adv-x="1161" d="M83 418v54q0 66 67 66h861q67 0 67 -66v-54q0 -66 -67 -66h-861q-67 0 -67 66z" />
<glyph unicode="&#x2018;" horiz-adv-x="499" d="M65 958v261h271v-171q0 -43 22 -66.5t69 -23.5v-292h-91q-116 0 -193.5 83.5t-77.5 208.5z" />
<glyph unicode="&#x2019;" horiz-adv-x="499" d="M58 660v291q46 0 68.5 24.5t22.5 66.5v169h272v-260q0 -123 -78 -207t-194 -84h-91z" />
<glyph unicode="&#x201c;" horiz-adv-x="882" d="M66 958v261h271v-171q0 -42 22 -66t68 -24v-292h-90q-116 0 -193.5 83.5t-77.5 208.5zM472 958v261h272v-171q0 -42 22 -66t69 -24v-292h-91q-116 0 -194 84t-78 208z" />
<glyph unicode="&#x201d;" horiz-adv-x="882" d="M58 660v291q46 0 68.5 24.5t22.5 66.5v169h272v-260q0 -123 -78 -207t-194 -84h-91zM466 660v291q46 0 68.5 24.5t22.5 66.5v169h271v-260q0 -124 -77.5 -207.5t-193.5 -83.5h-91z" />
<glyph unicode="&#x2022;" horiz-adv-x="965" d="M133 512q0 123 110 202q102 73 240 73t239 -72q110 -78 110 -201q0 -131 -107 -219q-102 -84 -242 -84t-242 83q-108 88 -108 218z" />
<glyph unicode="&#x2026;" horiz-adv-x="1146" d="M58 4v261h270v-261h-270zM440 4v261h270v-261h-270zM822 4v261h270v-261h-270z" />
<glyph unicode="&#x2039;" horiz-adv-x="1117" d="M131 509q0 23 23 35l690 287q28 11 55 11q25 0 40 -9.5t15 -27.5v-26q0 -14 -24 -26l-596 -243l596 -244q9 -3 16.5 -11.5t7.5 -14.5v-25q0 -17 -15 -27t-40 -10q-15 0 -27 2t-28 9l-693 288q-20 13 -20 32z" />
<glyph unicode="&#x203a;" horiz-adv-x="1108" d="M140 215v25q0 6 7.5 14.5t17.5 11.5l595 244l-595 243q-9 4 -17 12t-8 14v26q0 17 15 27t40 10q15 0 27 -2t28 -9l691 -287q23 -13 23 -35q0 -19 -21 -32l-693 -288q-28 -11 -55 -11q-25 0 -40 9.5t-15 27.5z" />
<glyph unicode="&#x20ac;" horiz-adv-x="1100" d="M-3 685v136h1091v-136h-1091zM4 452v136h1091v-136h-1091zM34 605q0 250 114 426q126 195 338 195h597v-258h-552q-100 0 -157 -106q-51 -95 -51 -235q0 -144 53 -246q58 -112 155 -112h552v-265h-597q-215 0 -340 187q-112 168 -112 414z" />
<glyph unicode="&#x2122;" horiz-adv-x="2729" d="M18 968v258h818v-258h-276v-964h-267v964h-275zM917 4v980q0 134 101 204q87 60 223 60q182 0 289 -183q72 -122 137 -395q72 -300 105 -372q10 -23 28.5 -36t38.5 -13q18 0 28.5 12t10.5 37v686q0 134 101 204q87 60 223 60q111 0 196 -78q91 -84 138 -249l261 -917 h-278l-65 256q-78 297 -137 473q-82 249 -121 249h-2q-27 -6 -36.5 -20.5t-9.5 -40.5v-671q0 -116 -96 -192q-90 -71 -215 -71q-108 0 -194 57q-96 64 -136 183q-8 24 -73 260q-59 214 -103 335q-59 160 -97 160h-2q-25 -6 -35 -20.5t-10 -40.5v-917h-270z" />
<glyph unicode="&#xe000;" horiz-adv-x="1215" d="M0 1215h1215v-1215h-1215v1215z" />
<glyph unicode="&#xfb01;" horiz-adv-x="1523" d="M58 4v621q0 172 34 293q41 144 130 221q101 87 267 87h598v-258h-598q-101 0 -141 -109q-13 -36 -20 -109h759v-257v-7h-759v-482h-270zM58 4zM1199 4v1222h270v-1222h-270zM1207 1402q0 43 30.5 66t78.5 23q47 0 78 -23t31 -66q0 -41 -32 -61q-28 -17 -77 -17 q-51 0 -77 16q-32 19 -32 62zM1246 1406q0 -26 17.5 -33t52.5 -7q37 0 50 5q20 8 20 35t-19 38.5t-51 11.5q-33 0 -51.5 -11t-18.5 -39z" />
<glyph unicode="&#xfb02;" horiz-adv-x="2282" d="M58 4v621q0 172 34 293q41 144 130 221q101 87 267 87h598v-258h-598q-101 0 -141 -109q-13 -36 -20 -109h759v-257v-7h-759v-482h-270zM58 4zM1196 592q0 28 0.5 39.5t2.5 20.5v574h270v-574q0 -155 65 -261q75 -122 207 -122h487v-265h-487q-231 0 -366 116 q-106 91 -150 248q-29 103 -29 224z" />
<glyph unicode="&#xfb03;" horiz-adv-x="2664" d="M58 4v621q0 172 34 293q41 144 130 221q101 87 267 87h598v-258h-598q-101 0 -141 -109q-13 -36 -20 -109h759v-257v-7h-759v-482h-270zM58 4zM1199 4v621q0 172 34 293q41 144 130 221q101 87 267 87h598v-258h-598q-101 0 -141 -109q-13 -36 -20 -109h759v-257v-7h-759 v-482h-270zM2340 4v1222h270v-1222h-270zM2348 1402q0 43 30.5 66t78.5 23q47 0 78 -23t31 -66q0 -41 -32 -61q-28 -17 -77 -17q-51 0 -77 16q-32 19 -32 62zM2387 1406q0 -26 17.5 -33t52.5 -7q37 0 50 5q20 8 20 35t-19 38.5t-51 11.5q-33 0 -51.5 -11t-18.5 -39z" />
<glyph unicode="&#xfb04;" horiz-adv-x="3423" d="M58 4v621q0 172 34 293q41 144 130 221q101 87 267 87h598v-258h-598q-101 0 -141 -109q-13 -36 -20 -109h759v-257v-7h-759v-482h-270zM58 4zM1199 4v621q0 172 34 293q41 144 130 221q101 87 267 87h598v-258h-598q-101 0 -141 -109q-13 -36 -20 -109h759v-257v-7h-759 v-482h-270zM2337 592q0 28 0.5 39.5t2.5 20.5v574h270v-574q0 -155 65 -261q75 -122 207 -122h487v-265h-487q-231 0 -366 116q-106 91 -150 248q-29 103 -29 224z" />
</font>
</defs>
</svg>
